PathFileType	4	(X/Y/Z)	65_1_23_p0_0-378_filt_butterworth.trc
DataRate	CameraRate	NumFrames	NumMarkers	Units	OrigDataRate	OrigDataStartFrame	OrigNumFrames
59.0	59.0	6	27	m	59.0	94	378
Frame#	Time	RHip			RKnee			RAnkle			RBigToe			RSmallToe			RHeel			LHip			LKnee			LAnkle			LBigToe			LSmallToe			LHeel			Neck			Head			Nose			RShoulder			RElbow			RWrist			RThumb			RIndex			RPinky			LShoulder			LElbow			LWrist			LThumb			LIndex			LPinky			
		X1	Y1	Z1	X2	Y2	Z2	X3	Y3	Z3	X4	Y4	Z4	X5	Y5	Z5	X6	Y6	Z6	X7	Y7	Z7	X8	Y8	Z8	X9	Y9	Z9	X10	Y10	Z10	X11	Y11	Z11	X12	Y12	Z12	X13	Y13	Z13	X14	Y14	Z14	X15	Y15	Z15	X16	Y16	Z16	X17	Y17	Z17	X18	Y18	Z18	X19	Y19	Z19	X20	Y20	Z20	X21	Y21	Z21	X22	Y22	Z22	X23	Y23	Z23	X24	Y24	Z24	X25	Y25	Z25	X26	Y26	Z26	X27	Y27	Z27	
94	1.5932203389830508	0.4019661967383217	0.6500630855422269	0.3616251372989019	0.37377762867729836	0.9029787625738732	0.7450996405419504	0.3104593473554781	1.045374941009951	1.1508924613559492	0.2991697954349531	0.9193555867805236	1.235333457552702	0.3642415939835648	0.9398972291262747	1.2323536465555744	0.27670086052589427	1.0996820697194654	1.2031163484387035	0.16474393278997834	0.7049515181443818	0.3227484821340087	0.13618904530812412	0.8845866366294453	0.7078868165726911	0.10642287377016071	1.0433293590267285	1.142207114167517	0.13508017718440457	0.8678961953445223	1.195763991197393	0.06745112057909773	0.9158813100532032	1.1829583236520334	0.1151087824744011	1.0887547010574914	1.1754849304667656	0.358536877270354	0.5810670760856361	-0.23721055462466548	0.3362516605941039	0.4676507554037831	-0.458490116039941	0.3274824225964301	0.41533851766437	-0.3116528898120594	0.4937346148547308	0.5367354795524573	-0.12413991207631168	0.5331100275914381	0.5817686355603239	0.14940584400727602	0.5066099178847132	0.5680169866869745	0.3963815106675683	0.42616632795220694	0.5767350391085231	0.5213226822139172	0.43699659776306515	0.5478227684633106	0.5335351884659285	0.4932607663212946	0.6185456235530945	0.5301059248690966	0.191554058679972	0.5211841934750994	-0.20917304281858587	0.023161908698508107	0.4267258759741958	-0.2718127046434915	0.2209973163780675	0.4353687197434332	-0.3860417110005554	0.35261350170672034	0.3996961059850602	-0.3769451690028126	0.34717585895762776	0.3820664931012093	-0.3938521804335848	0.30357667926659176	0.402607014691855	-0.38876961490856377
95	1.6101694915254237	0.4019661784980098	0.6500626873157849	0.36166697488579747	0.37255369955005124	0.903033048567979	0.7444165063438909	0.31047413275011326	1.0454300922995265	1.1508953769650425	0.2995480903057722	0.9173669440266016	1.2347975271761935	0.3641182316349137	0.9407970116951592	1.2326062401086508	0.27669906044623716	1.100441515636607	1.2012745262857298	0.16477361003852958	0.7049677890128243	0.3227986262467176	0.136283601703291	0.884758858892955	0.7080753556297588	0.10641723459828671	1.0433395133814476	1.1422700975225588	0.13552102612189032	0.8700810231682508	1.1966104022198623	0.06779036777884437	0.9180174332201441	1.1834785903792586	0.11514502435842044	1.0890093609562972	1.1754660401111001	0.3576381989002788	0.5802483083427916	-0.2371580300715798	0.33629958931265364	0.4671559317682237	-0.45851995869002193	0.327599558380022	0.41453394940269034	-0.31326500582888284	0.4937276754683536	0.5366771787994249	-0.12413457045192475	0.5327837815409624	0.5802071298031011	0.14910163736444465	0.5063635424249064	0.5680182892129202	0.39672538529689283	0.4248720246670381	0.5781078410910518	0.5202052842157626	0.43586666632622295	0.5432767943071974	0.5331574970174912	0.4930639032580854	0.6189712320408339	0.5300663049044949	0.19156266162150346	0.5211390627818554	-0.2091548175207749	0.02187075529313556	0.429816954903454	-0.273433850362906	0.2199231307559546	0.4385434458942498	-0.38635630676516436	0.3511392346456582	0.3995563468737563	-0.37822963183502273	0.3464333796891591	0.3857720561414459	-0.3942867087055171	0.3030583144110643	0.4002164648689918	-0.3894799873873703
96	1.6271186440677967	0.40195438935082606	0.6500652225403903	0.3616972418399937	0.37194207248683764	0.9028850848769219	0.74318095169648	0.3105133144892414	1.0454637208805801	1.1508813118781556	0.3004910528379035	0.9122352071714785	1.2333455528411095	0.3638453815457658	0.9411403754649927	1.232599485022413	0.2766764499290562	1.1011609183563233	1.1993234493771368	0.16480159843745754	0.7049275121398629	0.3228069874546871	0.13635485881615603	0.8849647332789098	0.7081459899688003	0.10636821605584999	1.0429657962308454	1.1416668606885998	0.13521243392534504	0.8720758531904447	1.196756603726456	0.06856455748935489	0.9223240934930936	1.1846334790762882	0.11515416395278934	1.0889752419366083	1.175438850721424	0.35632965212646006	0.5791934301196545	-0.23729502165962793	0.3362555927777922	0.46613746774893233	-0.4588540737639085	0.32780516448283203	0.4129984690505024	-0.31553432082410365	0.4938000333085846	0.5366272833154223	-0.12412488524334969	0.5328138675394054	0.5801082203413875	0.14921846156854587	0.5062336440153337	0.568417733160448	0.3972086827859499	0.4238007944171006	0.5784485397940828	0.519211957659389	0.43501803230194813	0.5395809056174491	0.5327280909275093	0.49298145122097803	0.6192547764525344	0.5298728707510072	0.1915455524745162	0.5210628744103181	-0.2091473858676996	0.01964744716193651	0.4339087569109934	-0.27477938734464	0.2194696559306442	0.4396954729229601	-0.3863465322489317	0.35010596198155963	0.39709980068954187	-0.37906977434913813	0.3454742925127001	0.3882239128928518	-0.3941063379838799	0.3028133184109848	0.39742700938651704	-0.3896921124947017
97	1.6440677966101696	0.4019172714072123	0.6500662988611878	0.3617107322698806	0.37173625503680885	0.9027452773175191	0.741987174961531	0.3105495706462578	1.0454882113963837	1.150862251995632	0.3017474365703432	0.9057291840945911	1.2314768057946048	0.36368271094753524	0.941173452948258	1.2325294755129514	0.27666620625424587	1.1015889818351492	1.1981759753418904	0.16481545487580979	0.7048829371487854	0.32279859035188335	0.1363881940808081	0.8851071402718041	0.708113186035371	0.10625900522924837	1.0419971052311834	1.1400640763718526	0.13524129029418205	0.8745937687440619	1.1961949544810269	0.06956589896888168	0.9276669256825226	1.186113645069675	0.11514531757339015	1.0889862002431627	1.175394971457131	0.3553102065759611	0.5783717022995168	-0.23805476616705548	0.3362088812179681	0.4652797595734404	-0.4598924404700815	0.327982820982426	0.41156021278824045	-0.31786659339094203	0.4938366621550542	0.536597853245302	-0.1241135442172979	0.5327862898765564	0.5806274598501285	0.1495312308340041	0.506117395876671	0.5687042131645954	0.39742770364780383	0.4226419195136305	0.5780993258017971	0.5187198198469853	0.43465998931366157	0.5380123693807131	0.5325736686830351	0.4929919268310048	0.6196060108990458	0.5297503782724622	0.19149398169460344	0.5210326455404535	-0.20915173050907143	0.017184093468259894	0.4368016076305555	-0.27554279766317424	0.21937410830688234	0.43967188337346147	-0.386275075323412	0.3495779564139594	0.39505632118396383	-0.3796409265834099	0.3447567734766499	0.3888597257986167	-0.39393879858176295	0.3029214359088464	0.3970306180372742	-0.3897580634702894
98	1.6610169491525424	0.40186416357390065	0.6500784990366992	0.36171713449821224	0.3717321723258028	0.9027273582388673	0.741500510433226	0.3105806214972714	1.0455828599030614	1.1508743220165354	0.302737763771921	0.9011439020481662	1.230128073533541	0.36374568925897577	0.9410813626392408	1.2325372506138828	0.27679385569834425	1.1018957549526744	1.1977720971447834	0.16481842842332756	0.7048880919676145	0.322794124434033	0.13639379729243262	0.885165248685563	0.7079980115782635	0.10612169760712574	1.040726604003624	1.137963396888696	0.13610017287539128	0.8780698909071775	1.195397485379844	0.07034308265371818	0.9318576543603674	1.1872812191246154	0.11516087500295691	1.0891939284262218	1.1753428051762749	0.3548708078548147	0.5780377977054043	-0.23929829731384233	0.3362625368224121	0.4651937868605199	-0.4613530860021852	0.32812709022764114	0.4106159719005729	-0.319404018546222	0.4938383930679061	0.5366021737208629	-0.12409614268830133	0.5326166219741502	0.5812187134308897	0.15004810347048475	0.5060828829733094	0.5687078023829489	0.397178182159467	0.4213420490926214	0.577617140492886	0.5186212658224815	0.43462135760756015	0.5378819044276983	0.5326580232553665	0.49301752010599725	0.6200501723898207	0.5296968091464815	0.19143435123789027	0.5211315128891268	-0.20915466634346824	0.015223166462756845	0.4376423240693846	-0.27577083740787783	0.21933387868555254	0.4394299895598622	-0.3862466086655967	0.3494623553289844	0.39413957833459445	-0.3800122882137641	0.34437509373305586	0.3885602135308492	-0.3940304768115631	0.30295335887864	0.39954851364591737	-0.38996005665260225
99	1.6779661016949152	0.40183071216948996	0.6500950671837971	0.36172088096064525	0.37185737613988434	0.9025234614311823	0.7414455401727268	0.3106368068537829	1.0458373492393136	1.1509459883794815	0.30318007964126004	0.8996280494696033	1.229641683077162	0.36390561203885097	0.9410180387640984	1.2324597461954423	0.2771135876949241	1.102175903421376	1.1972935788383117	0.16481771149555546	0.7049800493840771	0.3227995191488361	0.13638642627738412	0.8851731012926508	0.7078384894497654	0.10601916332271974	1.0397683356385201	1.1363979371268271	0.13734345214467317	0.8811008799813012	1.1949892921832617	0.07068628569172695	0.933966552342841	1.187856491117096	0.1151854796346222	1.0894551975406912	1.1752947338982371	0.35479343013498515	0.5780232807507916	-0.2403494043022102	0.3366864217410135	0.4667263909559849	-0.4626988560569202	0.3282333973637559	0.4101503983694462	-0.3198973150720907	0.49383066891537897	0.536631286263061	-0.12407318524920403	0.532439832002998	0.5815869362277987	0.15090114412348443	0.5061609429954212	0.5684831674085351	0.3965357606833989	0.4203510951457292	0.577268649471673	0.5186614026139301	0.43467628395757996	0.5381799269839119	0.5327956413033027	0.4929687513697995	0.6199557122849596	0.529504153582978	0.19141058853281678	0.5213126300456588	-0.20914466071774904	0.014142206547786572	0.4373736373321596	-0.2757487861620367	0.21925000962384705	0.43930800767619704	-0.38626157544871165	0.3494291835827943	0.3942805143816269	-0.38034633903594933	0.34380376430533593	0.3883326088141346	-0.39423395078904844	0.30233409520825566	0.40282538931824435	-0.3902093074029339
